<?xml version="1.0" encoding="utf-8"?>
<!-- Generator: Adobe Illustrator 24.1.1, SVG Export Plug-In . SVG Version: 6.00 Build 0)  -->
<svg version="1.1" id="Layer_1" xmlns="http://www.w3.org/2000/svg" xmlns:xlink="http://www.w3.org/1999/xlink" x="0px" y="0px"
	 viewBox="0 0 24 24" style="enable-background:new 0 0 24 24;" xml:space="preserve">
<style type="text/css">
	.st0{fill:none;}
</style>
<g>
	<path d="M18,8.5h-1v-2c0-2.76-2.24-5-5-5s-5,2.24-5,5v2H6c-1.1,0-2,0.9-2,2v10c0,1.1,0.9,2,2,2h12c1.1,0,2-0.9,2-2v-10
		C20,9.4,19.1,8.5,18,8.5z M12,17.5c-1.1,0-2-0.9-2-2s0.9-2,2-2s2,0.9,2,2S13.1,17.5,12,17.5z M15.1,8.5H8.9v-2
		c0-1.71,1.39-3.1,3.1-3.1s3.1,1.39,3.1,3.1V8.5z"/>
	<rect x="0" class="st0" width="24" height="24"/>
</g>
</svg>
